<svg width="33" height="33" viewBox="0 0 33 33" fill="none" xmlns="http://www.w3.org/2000/svg">
<path fill-rule="evenodd" clip-rule="evenodd" d="M28.1673 4.8327C25.0508 1.71632 20.9073 0 16.5 0C12.0927 0 7.9492 1.71632 4.8327 4.8327C1.71626 7.94913 0 12.0927 0 16.5C0 20.9073 1.71632 25.0508 4.8327 28.1673C7.94913 31.2837 12.0927 33 16.5 33C20.9073 33 25.0508 31.2837 28.1673 28.1673C31.2837 25.0509 33 20.9073 33 16.5C33 12.0927 31.2837 7.9492 28.1673 4.8327ZM16.5 28.875C9.67641 28.875 4.125 23.3236 4.125 16.5C4.125 9.67641 9.67641 4.125 16.5 4.125C23.3236 4.125 28.875 9.67641 28.875 16.5C28.875 23.3236 23.3236 28.875 16.5 28.875ZM16.5 6.02882C10.7262 6.02882 6.02882 10.7262 6.02882 16.5C6.02882 22.2738 10.7262 26.9712 16.5 26.9712C22.2738 26.9712 26.9712 22.2738 26.9712 16.5C26.9712 10.7262 22.2738 6.02882 16.5 6.02882ZM20.625 14.7152C20.625 15.3968 20.374 16.0205 19.9603 16.5C20.374 16.9796 20.625 17.6033 20.625 18.2848V18.6815C20.625 20.1905 19.3973 21.4183 17.8882 21.4183H17.4519V22.8462C17.4519 23.3719 17.0257 23.7981 16.5 23.7981C15.9743 23.7981 15.5481 23.3719 15.5481 22.8462V21.4183H13.3269C12.8012 21.4183 12.375 20.9921 12.375 20.4664V12.5337C12.375 12.0079 12.8012 11.5818 13.3269 11.5818H15.5481V10.1539C15.5481 9.62814 15.9743 9.20197 16.5 9.20197C17.0257 9.20197 17.4519 9.6282 17.4519 10.1539V11.5818H17.8882C19.3972 11.5818 20.625 12.8095 20.625 14.3186V14.7152ZM14.2788 17.4519H17.8882C18.3475 17.4519 18.7212 17.8256 18.7211 18.2848V18.6815C18.7211 19.1408 18.3475 19.5144 17.8882 19.5144H14.2788V17.4519ZM17.8882 13.4856H14.2788V15.5481H17.8882C18.3475 15.5481 18.7211 15.1745 18.7211 14.7152V14.3185C18.7212 13.8592 18.3475 13.4856 17.8882 13.4856Z" fill="#FF9328"/>
</svg>
